<svg xmlns="http://www.w3.org/2000/svg" xmlns:xlink="http://www.w3.org/1999/xlink" xmlns:serif="http://www.serif.com/" width="100%" height="100%" viewBox="0 0 2225 427" version="1.1" xml:space="preserve" style="fill-rule:evenodd;clip-rule:evenodd;stroke-linejoin:round;stroke-miterlimit:2;">   <g transform="matrix(1,0,0,1,-609.990417,-710.836667)">       <g transform="matrix(4.166667,0,0,4.166667,0,0)"> <g transform="matrix(1,0,0,1,350.5956,228.3595)">     <path d="M0,-23.22L0,-18.429L-9.94,-18.429L-9.94,-14.93L-0.625,-14.93L-0.625,-10.381L-9.94,-10.381L-9.94,-6.036L-6.927,-6.036C-7.232,-6.911 -7.575,-7.767 -7.981,-8.599L-3.14,-9.18C-2.625,-8.154 -2.158,-7.108 -1.738,-6.036L0.041,-6.036L0.041,-1.244L-23.665,-1.244L-23.665,-6.036L-15.177,-6.036L-15.177,-10.381L-23.288,-10.381L-23.288,-14.93L-15.177,-14.93L-15.177,-18.429L-23.732,-18.429L-23.732,-23.22L0,-23.22ZM2.63,2.406L2.63,-26.848L-26.183,-26.848L-26.183,2.408L2.63,2.406ZM7.866,-31.642L7.866,8.422L2.63,8.422L2.63,7.175L-26.183,7.175L-26.183,8.422L-31.44,8.422L-31.44,-31.641L7.866,-31.642Z" style="fill:rgb(58,53,140);fill-rule:nonzero;"/> </g>       </g>       <g transform="matrix(4.166667,0,0,4.166667,0,0)"> <g transform="matrix(1,0,0,1,374.3033,220.261)">     <path d="M0,-10.112C1.08,-7.821 2.008,-5.48 2.773,-3.079C3.539,-0.682 4.216,1.743 4.788,4.193L-0.734,5.796C-2.046,0.849 -3.698,-3.973 -5.703,-8.682L0,-10.112ZM30.124,-18.957L30.124,-13.721L-9.69,-13.721L-9.69,-18.957L7.468,-18.957L7.468,-24.329L12.945,-24.329L12.945,-18.957L30.124,-18.957ZM25.446,-8.642C24.521,-5.62 23.467,-2.658 22.268,0.251C21.078,3.158 19.719,6 18.207,8.762L31.038,8.762L31.038,14.217L-11.297,14.217L-11.297,8.762L11.655,8.762C15.069,2.627 17.764,-3.82 19.743,-10.577L25.446,-8.642Z" style="fill:rgb(58,53,140);fill-rule:nonzero;"/> </g>       </g>       <g transform="matrix(4.166667,0,0,4.166667,0,0)"> <g transform="matrix(1,0,0,1,0,-162.925)">     <path d="M443.604,387.069L430.48,387.069L430.48,389.01L443.604,389.01L443.604,387.069ZM443.604,381.81L430.48,381.81L430.48,383.637L443.604,383.637L443.604,381.81ZM448.869,378.178L448.869,395.405C448.869,396.025 448.792,396.659 448.654,397.284C448.511,397.913 448.206,398.459 447.739,398.912C447.271,399.363 446.718,399.671 446.079,399.83C445.44,399.98 444.811,400.059 444.186,400.059L439.617,400.059L439.169,395.29L442.469,395.29C442.679,395.29 442.894,395.262 443.113,395.2C443.332,395.143 443.48,395.007 443.528,394.79C443.58,394.575 443.604,394.356 443.604,394.132L443.604,392.439L430.48,392.439L430.48,400.059L425.469,400.059L425.469,378.178L448.869,378.178ZM449.889,360.821L449.889,364.943L439.279,364.943L439.279,366.637L448.177,366.637L448.177,370.29L439.279,370.29L439.279,372.118L450.981,372.118L450.981,376.462L423.819,376.462L423.819,372.118L434.024,372.118L434.024,370.29L425.54,370.29L425.54,366.637L434.024,366.637L434.024,364.943L424.553,364.943L424.553,360.821L434.024,360.821L434.024,358.771L439.279,358.771L439.279,360.821L449.889,360.821ZM422.793,365.096C423.342,368.397 423.647,371.709 423.704,375.036L420.276,375.258L420.276,374.233C420.276,371.503 420.089,368.613 419.722,365.567L422.793,365.096ZM418.916,399.814L414.128,399.814L414.128,358.146L418.916,358.146L418.916,399.814ZM412.921,366.256C412.94,366.928 412.945,367.596 412.945,368.261C412.945,370.359 412.88,372.451 412.744,374.544C412.613,376.642 412.327,378.723 411.898,380.786L408.357,377.379C408.786,375.518 409.077,373.644 409.235,371.748C409.394,369.855 409.478,367.967 409.49,366.078L412.921,366.256Z" style="fill:rgb(58,53,140);fill-rule:nonzero;"/> </g>       </g>       <g transform="matrix(4.166667,0,0,4.166667,0,0)"> <g transform="matrix(1,0,0,1,489.9327,209.8692)">     <path d="M0,12.836C0.73,11.157 1.259,9.419 1.583,7.62L-1.979,7.62C-1.564,9.45 -0.906,11.187 0,12.836M-7.325,7.62L-7.325,21.905C-5.694,20.775 -4.263,19.43 -3.028,17.871C-3.996,16.299 -4.821,14.652 -5.527,12.937C-6.219,11.221 -6.705,9.45 -6.972,7.62L-7.325,7.62ZM5.684,-13.253L5.684,-5.1C5.684,-4.359 5.603,-3.614 5.422,-2.852C5.255,-2.095 4.897,-1.453 4.339,-0.922C3.782,-0.397 3.128,-0.04 2.384,0.149C1.64,0.329 0.901,0.424 0.157,0.424L-3.791,0.424L-4.364,-4.59L-1.269,-4.59C-0.954,-4.59 -0.634,-4.634 -0.32,-4.724C-0.005,-4.812 0.205,-5.018 0.291,-5.334C0.381,-5.653 0.424,-5.979 0.424,-6.306L0.424,-8.242L-7.325,-8.242L-7.325,3.056L7.043,3.056C6.91,5.566 6.566,8.054 6.013,10.517C5.47,12.985 4.626,15.353 3.505,17.627C4.659,18.832 5.899,19.921 7.224,20.904L4.769,26.316C3.166,25.141 1.693,23.834 0.362,22.396C-1.078,24.137 -2.728,25.649 -4.588,26.941L-7.325,22.193L-7.325,27.341L-12.342,27.341L-12.342,-13.253L5.684,-13.253ZM-22.055,1.226L-27.091,1.226C-26.839,2.788 -26.629,4.343 -26.443,5.905L-22.633,5.905L-22.327,3.743L-22.055,1.226ZM-15.775,-11.542L-15.775,-6.755L-21.927,-6.755L-21.927,-3.566L-14.616,-3.566L-14.616,1.226L-17.087,1.226C-17.239,2.8 -17.458,4.361 -17.754,5.905L-14.497,5.905L-14.497,10.473L-21.698,10.473L-21.698,14.349L-15.885,14.349L-15.885,18.917L-21.698,18.917L-21.698,27.096L-26.939,27.096L-26.939,18.917L-33.663,18.917L-33.663,14.349L-26.939,14.349L-26.939,10.473L-35.046,10.473L-35.046,5.905L-31.503,5.905C-31.669,4.343 -31.884,2.788 -32.151,1.226L-35.16,1.226L-35.16,-3.566L-27.177,-3.566L-27.177,-6.755L-33.911,-6.755L-33.911,-11.542L-27.177,-11.542L-27.177,-14.505L-21.927,-14.505L-21.927,-11.542L-15.775,-11.542Z" style="fill:rgb(58,53,140);fill-rule:nonzero;"/> </g>       </g>       <g transform="matrix(4.166667,0,0,4.166667,0,0)"> <g transform="matrix(1,0,0,1,520.8101,237.0348)">     <path d="M0,-41.447C0.968,-39.757 1.793,-37.986 2.475,-36.146L8.202,-36.146C9.333,-37.896 10.267,-39.739 11.011,-41.67L17.049,-40.199C16.395,-38.774 15.604,-37.421 14.664,-36.146L20.816,-36.146L20.816,-26.342L15.58,-26.342L15.58,-31.354L-14.435,-31.354L-14.435,-26.342L-19.671,-26.342L-19.671,-36.146L-14.125,-36.146C-14.64,-37.434 -15.236,-38.69 -15.908,-39.911L-10.205,-41.157C-9.285,-39.554 -8.498,-37.88 -7.84,-36.146L-3.538,-36.146C-4.101,-37.601 -4.754,-39.028 -5.479,-40.418L0,-41.447ZM9.7,-28.831L14.087,-24.916C11.173,-21.187 7.492,-18.505 3.033,-16.869L3.124,-16.582L21.731,-16.582L21.731,-11.565L3.996,-11.565C4.259,-9.903 4.387,-8.456 4.387,-7.221C4.387,-6.3 4.292,-5.385 4.101,-4.474C3.915,-3.553 3.505,-2.757 2.89,-2.056C2.27,-1.355 1.531,-0.84 0.658,-0.504C-0.205,-0.172 -1.106,0.033 -2.031,0.107C-2.966,0.183 -3.882,0.223 -4.788,0.223L-7.973,0.223L-8.445,-4.998L-5.408,-4.998C-4.893,-4.998 -4.373,-5.013 -3.848,-5.051C-3.328,-5.087 -2.837,-5.23 -2.37,-5.482C-1.903,-5.738 -1.612,-6.131 -1.488,-6.667C-1.373,-7.202 -1.311,-7.719 -1.311,-8.224C-1.311,-9.147 -1.431,-10.258 -1.664,-11.565L-20.477,-11.565L-20.477,-16.582L-2.627,-16.582C-2.971,-17.944 -3.371,-19.3 -3.829,-20.635L0.763,-20.635C2.795,-21.379 4.578,-22.518 6.109,-24.046L-11.802,-24.046L-11.802,-28.831L9.7,-28.831Z" style="fill:rgb(58,53,140);fill-rule:nonzero;"/> </g>       </g>       <g transform="matrix(4.166667,0,0,4.166667,0,0)"> <g transform="matrix(1,0,0,1,0,-161.241)">     <path d="M578.526,362.854L573.69,362.854L573.69,372.211L578.526,372.211L578.526,362.854ZM587.153,357.817L587.153,362.854L584.015,362.854L584.015,372.211L587.778,372.211L587.778,377.449L584.015,377.449L584.015,398.48L578.526,398.48L578.526,377.449L573.653,377.449C573.619,381.191 573.209,384.908 572.413,388.602C571.616,392.293 570.086,395.657 567.811,398.704L564.378,393.201C565.46,391.775 566.28,390.211 566.829,388.499C567.42,386.716 567.825,384.901 568.045,383.039C568.264,381.185 568.383,379.318 568.412,377.449L564.778,377.449L564.778,372.211L568.436,372.211L568.436,362.854L565.179,362.854L565.179,357.817L587.153,357.817ZM558.121,377.114L553.886,377.114L553.886,388.681L558.121,388.681L558.121,377.114ZM563.467,358.73L563.467,363.766L556.137,363.766C555.908,365.179 555.632,366.585 555.298,367.979C554.964,369.375 554.535,370.741 554.02,372.077L563.357,372.077L563.357,393.716L553.886,393.716L553.886,397.212L548.87,397.212L548.87,380.57C548.44,381.28 547.992,381.973 547.51,382.642L545.689,376.022C548.46,372.368 550.224,368.283 550.963,363.766L546.6,363.766L546.6,358.73L563.467,358.73Z" style="fill:rgb(58,53,140);fill-rule:nonzero;"/> </g>       </g>       <g transform="matrix(4.166667,0,0,4.166667,0,0)"> <g transform="matrix(1,0,0,1,615.3795,237.5727)">     <path d="M0,-42.066L0,-38.591L17.621,-38.591L17.621,-30.099L12.165,-30.099L12.165,-33.797L4.411,-33.797L4.411,-27.875C4.411,-27.117 4.793,-26.737 5.541,-26.737L8.841,-26.737C9.9,-26.737 10.467,-27.493 10.563,-29.008L15.928,-27.806C15.87,-27.105 15.765,-26.406 15.622,-25.699C15.465,-24.994 15.193,-24.342 14.797,-23.751C14.387,-23.157 13.839,-22.743 13.133,-22.511C12.427,-22.284 11.721,-22.168 11.03,-22.168L3.495,-22.168C2.708,-22.168 1.95,-22.334 1.235,-22.669C0.51,-23.008 -0.014,-23.534 -0.344,-24.25C-0.682,-24.971 -0.854,-25.719 -0.854,-26.489L-0.854,-33.797L-5.217,-33.797C-5.341,-32.831 -5.532,-31.888 -5.808,-30.96C-6.08,-30.027 -6.481,-29.15 -6.996,-28.318C-8.665,-25.898 -10.839,-24.083 -13.529,-22.88C-14.554,-22.405 -15.594,-21.973 -16.648,-21.59L-19.395,-26.737C-17.878,-27.061 -16.424,-27.566 -15.022,-28.251C-14.116,-28.679 -13.291,-29.239 -12.537,-29.925C-11.789,-30.602 -11.216,-31.413 -10.83,-32.352C-10.653,-32.824 -10.52,-33.312 -10.429,-33.797L-17.559,-33.797L-17.559,-30.099L-23.043,-30.099L-23.043,-38.591L-5.465,-38.591L-5.465,-42.066L0,-42.066ZM-5.575,-23.126L-5.575,-19.428L7.773,-19.428L7.773,-7.682C7.773,-6.91 8.154,-6.528 8.913,-6.528L10.978,-6.528C11.798,-6.528 12.303,-6.862 12.499,-7.539C12.689,-8.216 12.799,-8.889 12.833,-9.554C12.861,-10.224 12.88,-10.894 12.899,-11.562L18.493,-10.133C18.398,-9.318 18.312,-8.51 18.217,-7.706C18.116,-6.91 17.954,-6.109 17.735,-5.327C17.477,-4.282 16.977,-3.355 16.218,-2.539C15.465,-1.721 14.526,-1.309 13.41,-1.309L7.263,-1.309C6.4,-1.309 5.579,-1.502 4.797,-1.869C4.02,-2.241 3.443,-2.808 3.071,-3.571C2.699,-4.337 2.513,-5.15 2.513,-6.013L2.513,-14.638L-5.775,-14.638C-5.951,-13 -6.343,-11.431 -6.934,-9.914C-7.721,-7.964 -8.875,-6.285 -10.396,-4.876C-11.922,-3.464 -13.658,-2.399 -15.613,-1.678C-17.563,-0.961 -19.547,-0.4 -21.55,0L-23.844,-5.501C-21.96,-5.648 -20.115,-6.013 -18.317,-6.592C-16.686,-7.139 -15.241,-8.011 -13.977,-9.199C-12.714,-10.386 -11.884,-11.841 -11.483,-13.567L-11.192,-14.638L-22.466,-14.638L-22.466,-19.428L-10.83,-19.428L-10.83,-23.126L-5.575,-23.126Z" style="fill:rgb(58,53,140);fill-rule:nonzero;"/> </g>       </g>       <g transform="matrix(4.166667,0,0,4.166667,0,0)"> <g transform="matrix(1,0,0,1,677.5878,237.4892)">     <path d="M0,-41.91L1.273,-36.831L-12.475,-35.337L-12.475,-29.077L1.788,-29.077L1.788,-23.816L-2.675,-23.816L-2.675,-0.288L-7.911,-0.288L-7.911,-23.816L-12.504,-23.816C-12.504,-21.085 -12.699,-18.363 -13.1,-15.663C-13.505,-12.959 -14.206,-10.326 -15.193,-7.763C-16.19,-5.205 -17.592,-2.882 -19.385,-0.803L-23.663,-4.88C-22.861,-5.753 -22.146,-6.688 -21.502,-7.685C-20.844,-8.695 -20.286,-9.754 -19.819,-10.861C-19.352,-11.967 -18.975,-13.109 -18.679,-14.28C-18.393,-15.454 -18.174,-16.638 -18.04,-17.837C-17.897,-19.033 -17.811,-20.226 -17.783,-21.424C-17.749,-22.619 -17.735,-23.816 -17.735,-25.024L-17.735,-39.905L0,-41.91ZM-26.695,-26.784L-32.799,-26.784L-32.799,-21.146L-26.695,-21.146L-26.695,-26.784ZM-20.634,-35.629L-39.747,-35.629L-39.747,-40.884L-20.634,-40.884L-20.634,-35.629ZM-21.66,-31.816L-21.66,-16.134L-32.847,-16.134C-32.962,-13.34 -33.276,-10.572 -33.792,-7.832C-34.306,-5.09 -35.227,-2.479 -36.567,0L-40.778,-4.432C-40.062,-5.887 -39.471,-7.387 -39.008,-8.934C-38.536,-10.477 -38.226,-12.058 -38.059,-13.665C-37.897,-15.28 -37.811,-16.893 -37.811,-18.516L-37.811,-31.816L-21.66,-31.816Z" style="fill:rgb(58,53,140);fill-rule:nonzero;"/> </g>       </g>       <g transform="matrix(4.166667,0,0,4.166667,0,0)"> <g transform="matrix(-1,0,0,1,377.8391,263.4482)">     <path d="M-0.005,-6.829C1.905,-6.829 3.169,-5.589 3.169,-3.414C3.169,-1.24 1.905,0 -0.005,0C-1.908,0 -3.174,-1.24 -3.174,-3.414C-3.174,-5.589 -1.908,-6.829 -0.005,-6.829" style="fill:rgb(58,53,140);fill-rule:nonzero;"/> </g>       </g>       <g transform="matrix(4.166667,0,0,4.166667,0,0)"> <g transform="matrix(-1,0,0,1,530.2382,263.4482)">     <path d="M0,-6.829C1.908,-6.829 3.171,-5.589 3.171,-3.414C3.171,-1.24 1.908,0 0,0C-1.907,0 -3.171,-1.24 -3.171,-3.414C-3.171,-5.589 -1.907,-6.829 0,-6.829" style="fill:rgb(58,53,140);fill-rule:nonzero;"/> </g>       </g>       <g transform="matrix(4.166667,0,0,4.166667,0,0)"> <g transform="matrix(1,0,0,1,670.134,248.0376)">     <path d="M0,18.527L-4.812,18.527L-4.812,15.303L-0.377,15.303C0.272,15.303 0.591,14.979 0.591,14.578C0.591,12.936 -4.683,12.559 -4.683,9.304C-4.683,6.488 -2.689,5.463 -0.429,5.463L3.71,5.463L3.71,8.689L-0.267,8.689C-0.701,8.689 -1.13,8.744 -1.13,9.283C-1.13,10.463 4.406,11.109 4.406,14.547C4.406,17.158 2.47,18.527 0,18.527M-6.237,8.901L-8.522,8.901C-10.434,8.901 -11.64,10.194 -11.64,11.996C-11.64,13.796 -10.434,15.091 -8.522,15.091L-6.237,15.091L-6.237,18.527L-8.627,18.527C-12.661,18.527 -15.079,15.997 -15.079,11.996C-15.079,7.99 -12.661,5.463 -8.627,5.463L-6.237,5.463L-6.237,8.901ZM-18.87,3.741C-20.029,3.741 -20.911,2.964 -20.911,1.567C-20.911,0.167 -20.029,-0.608 -18.87,-0.608C-17.716,-0.608 -16.829,0.167 -16.829,1.567C-16.829,2.964 -17.716,3.741 -18.87,3.741M-17.153,18.527L-20.591,18.527L-20.591,5.463L-17.153,5.463L-17.153,18.527ZM-22.365,8.796L-24.864,8.796L-24.864,13.634C-24.864,14.6 -24.383,15.091 -23.682,15.091L-22.365,15.091L-22.365,18.527L-24.168,18.527C-27.339,18.527 -28.307,16.646 -28.307,13.741L-28.307,1.968L-24.864,1.968L-24.864,5.463L-22.365,5.463L-22.365,8.796ZM-30.563,18.527L-34.006,18.527L-34.006,11.162C-34.006,9.602 -35.189,8.582 -37.072,8.582C-38.708,8.582 -39.971,10.089 -39.971,11.996C-39.971,13.741 -38.708,15.141 -36.958,15.141C-36.209,15.141 -35.651,14.979 -35.003,14.736L-35.003,18.315C-35.785,18.498 -36.481,18.639 -37.177,18.639C-41.212,18.639 -43.419,15.544 -43.419,12.132C-43.419,7.933 -40.615,5.139 -37.02,5.139C-33.095,5.139 -30.563,7.614 -30.563,11L-30.563,18.527ZM-45.565,18.527L-49.17,18.527L-49.17,10.675C-49.17,9.335 -49.786,8.582 -51.049,8.582C-51.693,8.608 -52.451,8.901 -52.933,9.788L-52.933,18.527L-56.534,18.527L-56.534,10.675C-56.534,9.335 -57.153,8.582 -58.417,8.582C-59.681,8.582 -60.296,9.335 -60.296,10.675L-60.296,18.527L-63.896,18.527L-63.896,9.497C-63.896,6.646 -61.746,5.139 -58.551,5.139C-57.153,5.139 -55.623,6.026 -54.654,7.127C-53.52,5.785 -52.127,5.139 -50.515,5.139C-47.931,5.139 -45.565,6.646 -45.565,9.497L-45.565,18.527ZM-65.565,8.956L-66.4,8.956C-68.117,8.956 -69.247,10.139 -69.247,12.132L-69.247,18.527L-72.904,18.527L-72.904,5.463L-69.652,5.463L-69.652,7.933L-69.6,7.933C-69.008,6.245 -67.74,5.303 -66.29,5.303L-65.565,5.303L-65.565,8.956ZM-81.617,18.854C-85.675,18.854 -88.231,15.735 -88.231,11.996C-88.231,8.257 -85.675,5.139 -81.617,5.139C-77.554,5.139 -75.003,8.257 -75.003,11.996C-75.003,15.735 -77.554,18.854 -81.617,18.854M-89.328,3.15L-90.678,3.15C-91.508,3.15 -92.018,3.474 -92.018,4.471L-92.018,5.463L-89.328,5.463L-89.328,8.796L-92.018,8.796L-92.018,18.527L-95.461,18.527L-95.461,5.41C-95.461,2.454 -94.412,-0.293 -90.702,-0.293L-89.328,-0.293L-89.328,3.15ZM-97.883,18.527L-101.322,18.527L-101.322,10.675C-101.322,9.335 -102.023,8.582 -103.286,8.582C-104.55,8.582 -105.246,9.335 -105.246,10.675L-105.246,18.527L-108.689,18.527L-108.689,9.497C-108.689,6.646 -106.481,5.139 -103.286,5.139C-100.086,5.139 -97.883,6.646 -97.883,9.497L-97.883,18.527ZM-111.751,18.527L-115.728,18.527L-115.728,-0.293L-111.751,-0.293L-111.751,18.527ZM-125.189,3.15L-126.534,3.15C-127.373,3.15 -127.879,3.474 -127.879,4.471L-127.879,5.463L-125.189,5.463L-125.189,8.796L-127.879,8.796L-127.879,18.527L-131.322,18.527L-131.322,5.41C-131.322,2.454 -130.273,-0.293 -126.563,-0.293L-125.189,-0.293L-125.189,3.15ZM-139.896,18.854C-143.959,18.854 -146.51,15.735 -146.51,11.996C-146.51,8.257 -143.959,5.139 -139.896,5.139C-135.838,5.139 -133.282,8.257 -133.282,11.996C-133.282,15.735 -135.838,18.854 -139.896,18.854M-162.533,18.854C-166.591,18.854 -169.143,15.735 -169.143,11.996C-169.143,8.257 -166.591,5.139 -162.533,5.139C-159.033,5.139 -157.049,7.022 -156.186,9.011L-162.824,13.985L-164.493,11.805L-161.084,9.168C-161.432,8.773 -162.047,8.582 -162.772,8.582C-164.469,8.582 -165.704,10.115 -165.704,11.996C-165.704,13.613 -164.436,15.411 -162.395,15.411C-160.678,15.411 -159.252,14.361 -158.957,12.616L-155.49,12.986C-156.134,16.51 -158.847,18.854 -162.533,18.854M-170.297,8.796L-172.8,8.796L-172.8,13.634C-172.8,14.6 -172.319,15.091 -171.623,15.091L-170.297,15.091L-170.297,18.527L-172.099,18.527C-175.271,18.527 -176.243,16.646 -176.243,13.741L-176.243,1.968L-172.8,1.968L-172.8,5.463L-170.297,5.463L-170.297,8.796ZM-178.58,14.493C-178.58,17.347 -180.783,18.854 -183.983,18.854C-187.183,18.854 -189.386,17.347 -189.386,14.493L-189.386,5.463L-185.943,5.463L-185.943,13.312C-185.943,14.662 -185.242,15.411 -183.983,15.411C-182.719,15.411 -182.023,14.662 -182.023,13.312L-182.023,5.463L-178.58,5.463L-178.58,14.493ZM-191.212,8.796L-193.716,8.796L-193.716,13.634C-193.716,14.6 -193.23,15.091 -192.538,15.091L-191.212,15.091L-191.212,18.527L-193.015,18.527C-196.191,18.527 -197.154,16.646 -197.154,13.741L-197.154,1.968L-193.716,1.968L-193.716,5.463L-191.212,5.463L-191.212,8.796ZM-201.16,3.741C-202.319,3.741 -203.206,2.964 -203.206,1.567C-203.206,0.167 -202.319,-0.608 -201.16,-0.608C-200.001,-0.608 -199.119,0.167 -199.119,1.567C-199.119,2.964 -200.001,3.741 -201.16,3.741M-199.438,18.527L-202.877,18.527L-202.877,5.463L-199.438,5.463L-199.438,18.527ZM-204.656,8.796L-207.154,8.796L-207.154,13.634C-207.154,14.6 -206.668,15.091 -205.967,15.091L-204.656,15.091L-204.656,18.527L-206.453,18.527C-209.629,18.527 -210.593,16.646 -210.593,13.741L-210.593,1.968L-207.154,1.968L-207.154,5.463L-204.656,5.463L-204.656,8.796ZM-216.644,18.527L-221.456,18.527L-221.456,15.303L-217.021,15.303C-216.372,15.303 -216.053,14.979 -216.053,14.578C-216.053,12.936 -221.322,12.559 -221.322,9.304C-221.322,6.488 -219.334,5.463 -217.073,5.463L-212.939,5.463L-212.939,8.689L-216.911,8.689C-217.345,8.689 -217.774,8.744 -217.774,9.283C-217.774,10.463 -212.238,11.109 -212.238,14.547C-212.238,17.158 -214.174,18.527 -216.644,18.527M-223.392,18.527L-226.83,18.527L-226.83,10.675C-226.83,9.335 -227.531,8.582 -228.795,8.582C-230.059,8.582 -230.76,9.335 -230.76,10.675L-230.76,18.527L-234.198,18.527L-234.198,9.497C-234.198,6.646 -231.99,5.139 -228.795,5.139C-225.6,5.139 -223.392,6.646 -223.392,9.497L-223.392,18.527ZM-237.264,18.527L-241.241,18.527L-241.241,-0.293L-237.264,-0.293L-237.264,18.527ZM-251.719,18.527L-255.171,18.527L-255.171,-0.293L-251.719,-0.293L-251.719,18.527ZM-257.666,18.527L-261.109,18.527L-261.109,11.162C-261.109,9.602 -262.287,8.582 -264.171,8.582C-265.811,8.582 -267.08,10.089 -267.08,11.996C-267.08,13.741 -265.811,15.141 -264.061,15.141C-263.312,15.141 -262.75,14.979 -262.101,14.736L-262.101,18.315C-262.883,18.498 -263.58,18.639 -264.278,18.639C-268.31,18.639 -270.518,15.544 -270.518,12.132C-270.518,7.933 -267.719,5.139 -264.121,5.139C-260.194,5.139 -257.666,7.614 -257.666,11L-257.666,18.527ZM-272.693,18.527L-276.131,18.527L-276.131,10.675C-276.131,9.335 -276.832,8.582 -278.096,8.582C-279.359,8.582 -280.058,9.335 -280.058,10.675L-280.058,18.527L-283.499,18.527L-283.499,9.497C-283.499,6.646 -281.295,5.139 -278.096,5.139C-274.898,5.139 -272.693,6.646 -272.693,9.497L-272.693,18.527ZM-292.29,18.854C-296.346,18.854 -298.906,15.735 -298.906,11.996C-298.906,8.257 -296.346,5.139 -292.29,5.139C-288.231,5.139 -285.68,8.257 -285.68,11.996C-285.68,15.735 -288.231,18.854 -292.29,18.854M-302.75,3.741C-303.904,3.741 -304.791,2.964 -304.791,1.567C-304.791,0.167 -303.904,-0.608 -302.75,-0.608C-301.591,-0.608 -300.704,0.167 -300.704,1.567C-300.704,2.964 -301.591,3.741 -302.75,3.741M-301.024,18.527L-304.467,18.527L-304.467,5.463L-301.024,5.463L-301.024,18.527ZM-306.246,8.796L-308.742,8.796L-308.742,13.634C-308.742,14.6 -308.26,15.091 -307.562,15.091L-306.246,15.091L-306.246,18.527L-308.046,18.527C-311.214,18.527 -312.183,16.646 -312.183,13.741L-312.183,1.968L-308.742,1.968L-308.742,5.463L-306.246,5.463L-306.246,8.796ZM-314.438,18.527L-317.881,18.527L-317.881,11.162C-317.881,9.602 -319.066,8.582 -320.948,8.582C-322.583,8.582 -323.847,10.089 -323.847,11.996C-323.847,13.741 -322.583,15.141 -320.836,15.141C-320.084,15.141 -319.522,14.979 -318.875,14.736L-318.875,18.315C-319.655,18.498 -320.354,18.639 -321.057,18.639C-325.085,18.639 -327.29,15.544 -327.29,12.132C-327.29,7.933 -324.496,5.139 -320.89,5.139C-316.971,5.139 -314.438,7.614 -314.438,11L-314.438,18.527ZM-329.713,16.135C-329.713,17.59 -330.247,18.854 -331.94,18.854C-333.609,18.854 -334.305,17.831 -335.197,16.026L-340.514,5.029L-340.569,5.089L-340.569,18.527L-344.548,18.527L-344.548,2.13C-344.548,0.544 -343.499,-0.608 -341.806,-0.608C-339.899,-0.608 -339.012,0.837 -338.396,2.13L-333.768,11.782L-333.69,11.782L-333.69,-0.293L-329.713,-0.293L-329.713,16.135ZM-351.31,23.279L10.177,23.279L10.177,-4.752L-351.31,-4.752L-351.31,23.279Z" style="fill:rgb(58,53,140);fill-rule:nonzero;"/> </g>       </g>       <g transform="matrix(4.166667,0,0,4.166667,0,0)"> <g transform="matrix(-1,0,0,1,588.517,263.4482)">     <path d="M0,-6.829C1.907,-6.829 3.171,-5.589 3.171,-3.414C3.171,-1.24 1.907,0 0,0C-1.912,0 -3.171,-1.24 -3.171,-3.414C-3.171,-5.589 -1.912,-6.829 0,-6.829" style="fill:rgb(58,53,140);fill-rule:nonzero;"/> </g>       </g>       <g transform="matrix(4.166667,0,0,4.166667,0,0)"> <g transform="matrix(1,0,0,1,333.8382,172.4346)">     <path d="M0,15.833C-2.942,14.3 -5.062,12.024 -6.45,8.85C-7.613,11.831 -9.54,14.159 -13.012,15.853L-14.547,13.75C-10.174,12.007 -8.445,9.185 -7.847,6.187L-14.108,6.187L-14.108,3.966L-7.652,3.966L-7.652,-0.02L-5.432,-0.02L-5.432,3.966L0.918,3.966L0.918,6.187L-5.2,6.187C-4.266,9.821 -1.586,12.378 1.361,13.735L0,15.833Z" style="fill:rgb(58,53,140);fill-rule:nonzero;"/> </g>       </g>       <g transform="matrix(4.166667,0,0,4.166667,0,0)"> <g transform="matrix(1,0,0,1,350.245,180.9551)">     <path d="M0,-1.382L0,-3.39L-10.72,-3.39L-10.72,-1.363L-12.871,-1.363L-12.871,-5.434L-10.739,-5.434C-11.056,-6.125 -11.55,-6.83 -12.151,-7.535L-10.174,-8.701C-9.304,-7.518 -8.5,-6.142 -8.5,-6.142L-9.735,-5.434L-6.19,-5.434C-6.543,-6.142 -7.072,-6.936 -7.616,-7.658L-5.677,-8.715C-4.793,-7.481 -4.175,-6.194 -4.175,-6.194L-5.556,-5.434L-3.171,-5.434C-2.344,-6.371 -1.636,-7.429 -1.04,-8.664L1.059,-7.696C0.51,-6.727 -0.019,-6.002 -0.548,-5.434L2.155,-5.436L2.155,-1.382L0,-1.382ZM-3.968,3.75C-3.968,6.978 -3.81,7.333 -8.255,7.333L-9.151,5.074C-6.066,5.074 -6.099,5.23 -6.099,4.051L-6.099,3.75L-13.121,3.75L-13.121,1.652L-6.099,1.652L-6.099,0.404L-5.536,0.404C-4.793,0.101 -3.932,-0.304 -3.932,-0.304L-10.174,-0.304L-10.174,-2.244L-0.548,-2.244L-0.548,-0.66C-0.548,-0.66 -2.22,0.542 -3.968,1.442L-3.968,1.652L2.399,1.651L2.399,3.75L-3.968,3.75Z" style="fill:rgb(58,53,140);fill-rule:nonzero;"/> </g>       </g>       <g transform="matrix(4.166667,0,0,4.166667,0,0)"> <g transform="matrix(1,0,0,1,368.8576,172.4176)">     <path d="M0,15.85C-2.38,14.529 -4.444,12.041 -4.444,12.041L-2.666,10.648C-2.666,10.648 -1.076,12.625 1.536,13.909L0,15.85ZM-4.354,5.006L-8.341,5.006L-8.341,8.252L-4.354,8.252L-4.354,5.006ZM-14.039,10.365L-14.039,8.252L-10.529,8.252L-10.529,5.006L-13.264,5.006L-13.264,2.889L-10.529,2.889L-10.529,-0.02L-8.341,-0.02L-8.341,2.889L-4.354,2.889L-4.354,-0.02L-2.172,-0.02L-2.172,2.889L0.582,2.889L0.582,5.006L-2.172,5.006L-2.172,8.252L1.392,8.252L1.392,10.365L-14.039,10.365ZM-12.63,15.87L-14.301,13.982C-11.762,12.78 -10.108,10.577 -10.108,10.577L-8.324,11.97C-8.324,11.97 -10.086,14.529 -12.63,15.87" style="fill:rgb(58,53,140);fill-rule:nonzero;"/> </g>       </g>       <g transform="matrix(4.166667,0,0,4.166667,0,0)"> <g transform="matrix(1,0,0,1,0,-234.155)">     <path d="M382.229,415.352L378.099,415.352L378.099,417.169L382.229,417.169L382.229,415.352ZM376.197,413.306L384.132,413.306L384.132,419.213L376.197,419.213L376.197,413.306ZM375.737,410.168L384.557,410.168L384.557,412.156L375.737,412.156L375.737,410.168ZM384.275,422.443L383.34,420.201C385.384,420.218 385.348,420.201 385.348,419.161L385.348,409.108L374.981,409.108L374.981,422.443L372.863,422.443L372.863,406.992L387.465,406.992L387.465,418.756C387.465,421.736 387.68,422.353 384.275,422.443" style="fill:rgb(58,53,140);fill-rule:nonzero;"/> </g>       </g>       <g transform="matrix(4.166667,0,0,4.166667,0,0)"> <g transform="matrix(1,0,0,1,401.4759,172.4149)">     <path d="M0,15.873L-0.882,13.614C1.76,13.614 1.69,13.703 1.69,12.591L1.69,0L3.844,0L3.844,12.186C3.844,15.309 4.003,15.873 0,15.873M-1.817,1.059L0.26,1.059L0.26,12.061L-1.817,12.061L-1.817,1.059ZM-3.603,12.555C-4.445,11.551 -5.456,9.841 -5.944,8.326L-5.944,15.873L-7.971,15.873L-7.971,9.082C-8.45,10.599 -9.438,12.61 -10.336,13.632L-11.588,11.073C-10.425,10.14 -8.856,8.217 -8.164,6.702L-11.08,6.702L-11.08,4.656L-7.971,4.656L-7.971,2.787C-8.799,2.858 -9.705,2.909 -10.618,2.927L-10.987,0.723C-6.3,0.723 -3.846,0 -3.846,0L-2.93,2.116C-2.93,2.116 -4.13,2.363 -5.944,2.574L-5.944,4.656L-2.754,4.656L-2.754,6.702L-5.63,6.702C-4.817,7.956 -3.408,9.417 -2.542,9.999L-3.603,12.555Z" style="fill:rgb(58,53,140);fill-rule:nonzero;"/> </g>       </g>       <g transform="matrix(4.166667,0,0,4.166667,0,0)"> <g transform="matrix(1,0,0,1,0,-234.155)">     <path d="M420.476,413.184L416.47,413.184L416.47,415.369L420.476,415.369L420.476,413.184ZM420.476,409.108L416.47,409.108L416.47,411.155L420.476,411.155L420.476,409.108ZM414.353,409.108L410.541,409.108L410.541,411.155L414.353,411.155L414.353,409.108ZM414.353,413.184L410.541,413.184C410.541,413.888 410.522,414.716 410.491,415.37L414.353,415.37L414.353,413.184ZM418.969,422.443L418.058,420.184C420.161,420.184 420.476,420.113 420.476,419.161L420.476,417.396L416.47,417.396L416.47,422.194L414.353,422.194L414.353,417.396L410.35,417.396C410.136,419.442 409.769,421.048 408.92,422.443L407.317,420.465C408.166,418.63 408.429,416.463 408.429,412.035L408.429,406.992L422.607,406.992L422.607,418.756C422.607,421.631 422.326,422.282 418.969,422.443" style="fill:rgb(58,53,140);fill-rule:nonzero;"/> </g>       </g>       <g transform="matrix(4.166667,0,0,4.166667,0,0)"> <g transform="matrix(1,0,0,1,437.6004,181.7811)">     <path d="M0,-2.189C-0.282,-2.156 -0.548,-2.117 -0.815,-2.117C-0.815,-1.976 -0.773,-1.625 -0.773,-1.486L0.157,-1.486C0.105,-1.766 0,-2.189 0,-2.189M-1.145,-6.07C-1.126,-5.276 -1.078,-4.445 -1.002,-3.74L-0.634,-3.74C-0.425,-3.988 -0.21,-4.269 -0.014,-4.552C-0.334,-5.044 -0.739,-5.594 -1.145,-6.07M-3.066,-6.155C-3.529,-5.276 -4.125,-4.305 -4.568,-3.703C-4.354,-3.703 -3.724,-3.793 -3.543,-3.827C-3.543,-4.058 -3.577,-4.184 -3.596,-4.34L-3.052,-4.552C-3.052,-5.013 -3.066,-5.557 -3.066,-6.155M-0.844,4.916C-1.85,5.657 -2.837,6.172 -3.629,6.507L-4.917,4.793C-3.786,4.442 -2.432,3.787 -1.66,3.17C-1.993,2.341 -2.308,1.337 -2.489,0.334L-4.111,0.334C-4.111,0.474 -4.125,0.633 -4.125,0.774C-3.281,1.39 -2.609,1.92 -2.308,2.199L-3.458,3.861C-3.777,3.417 -4.178,3.014 -4.464,2.767C-4.888,4.265 -5.518,5.359 -6.295,6.152L-7.687,4.282C-6.824,3.473 -6.032,2.01 -5.994,0.334L-6.824,0.334L-6.824,-1.486L-2.714,-1.486C-2.737,-1.625 -2.766,-1.819 -2.785,-1.993L-3.4,-1.747C-3.4,-1.96 -3.4,-2.208 -3.419,-2.366C-4.216,-2.189 -5.608,-1.993 -6.662,-1.923L-7.454,0.104C-7.83,-0.742 -8.093,-1.518 -8.307,-2.665L-8.307,6.507L-10.334,6.507L-10.334,-1.486C-10.563,0.051 -10.935,1.372 -11.497,2.554L-12.432,-0.479C-11.674,-1.661 -10.987,-3.143 -10.563,-4.552L-12.008,-4.552L-12.008,-6.579L-10.334,-6.579L-10.334,-9.366L-8.307,-9.366L-8.307,-6.579L-7.177,-6.579L-7.177,-4.552L-8.178,-4.552C-7.797,-3.74 -7.354,-3.034 -6.772,-2.435L-7.02,-3.583C-7.02,-3.583 -6.791,-3.565 -6.4,-3.617C-6.209,-3.793 -5.875,-4.216 -5.68,-4.502C-6.013,-5.062 -6.562,-5.858 -7.072,-6.494L-6.209,-8.027C-6.118,-7.922 -6.032,-7.797 -5.928,-7.656C-5.661,-8.13 -5.47,-8.75 -5.327,-9.28L-3.949,-8.664C-4.268,-7.797 -4.707,-6.897 -5.079,-6.316C-4.969,-6.192 -4.888,-6.052 -4.817,-5.911C-4.53,-6.316 -4.23,-6.915 -3.987,-7.478L-3.104,-6.812C-3.124,-7.496 -3.138,-8.502 -3.138,-9.366L-1.216,-9.366C-1.216,-8.664 -1.235,-7.797 -1.216,-7.056L-0.634,-8.096C-0.548,-7.99 -0.458,-7.866 -0.353,-7.728C-0.086,-8.204 0.105,-8.75 0.248,-9.28L1.66,-8.714C1.307,-7.797 0.92,-6.987 0.529,-6.403C0.615,-6.278 0.777,-6.07 0.863,-5.962C1.078,-6.298 1.411,-6.934 1.66,-7.478L2.799,-6.65C2.365,-5.768 1.516,-4.445 1.078,-3.793C1.268,-3.793 1.66,-3.81 1.907,-3.846C1.888,-4.076 1.85,-4.358 1.817,-4.586L2.928,-4.905C3.09,-4.039 3.224,-2.982 3.3,-2.156L2.031,-1.837C2.031,-1.837 2.031,-2.241 2.012,-2.418C1.802,-2.366 1.54,-2.331 1.307,-2.331C1.307,-2.331 1.445,-1.747 1.497,-1.486L3.019,-1.486L3.019,0.334L-0.51,0.334C-0.477,0.686 -0.32,1.267 -0.124,1.779C0.267,1.39 0.653,0.917 0.92,0.44L2.465,1.267C1.974,2.112 1.268,2.855 0.653,3.489C1.125,4.461 1.478,4.742 2.084,2.45L3.438,3.967C2.222,7.158 0.601,7.177 -0.844,4.916" style="fill:rgb(58,53,140);fill-rule:nonzero;"/> </g>       </g>       <g transform="matrix(4.166667,0,0,4.166667,0,0)"> <g transform="matrix(1,0,0,1,0,-234.065)">     <path d="M455.893,411.118L453.194,411.118L453.194,412.019L455.893,412.019L455.893,411.118ZM455.893,408.701L453.194,408.701L453.194,409.53L455.893,409.53L455.893,408.701ZM455.893,413.657L452.083,413.657L453.933,414.062C453.933,414.062 453.676,414.68 453.385,415.014L454.644,415.014L454.644,416.566L451.749,416.566L451.716,417.201L455.187,417.201L455.187,418.807L452.384,418.807C453.07,419.388 453.862,419.669 454.997,419.756L454.749,420.218C455.841,420.218 455.893,420.075 455.893,418.982L455.893,413.657ZM448.115,411.118L445.559,411.118L445.559,412.019L448.115,412.019L448.115,411.118ZM448.115,408.701L445.559,408.701L445.559,409.53L448.115,409.53L448.115,408.701ZM455.102,422.263L454.501,420.745L453.9,421.789C452.469,421.187 451.363,420.307 450.676,418.877C449.937,420.392 448.907,421.309 447.128,421.858L446.07,419.865C447.343,419.756 448.206,419.424 448.84,418.807L446.246,418.807L446.246,417.201L449.598,417.201L449.656,416.566L446.742,416.566L446.742,415.014L448.101,415.014C447.92,414.593 447.586,414.115 447.586,414.115L449.332,413.657L445.559,413.657L445.559,422.353L443.442,422.353L443.442,406.992L450.233,406.992L450.233,413.657L449.632,413.657C449.775,413.975 450.009,414.593 450.128,415.014L451.344,415.014C451.559,414.61 451.716,414.08 451.816,413.657L451.077,413.657L451.077,406.992L458.01,406.992L458.01,418.578C458.01,421.592 457.944,422.263 455.102,422.263" style="fill:rgb(58,53,140);fill-rule:nonzero;"/> </g>       </g>       <g transform="matrix(4.166667,0,0,4.166667,0,0)"> <g transform="matrix(1,0,0,1,474.272,172.3969)">     <path d="M0,15.891C-0.196,15.269 -0.405,14.584 -0.648,13.985C-3.19,14.692 -6.028,15.167 -8.989,15.431L-9.499,13.032C-8.97,13.032 -8.498,13.014 -7.95,12.962C-7.139,11.656 -6.486,10.281 -6.047,9.011L-9.399,9.011L-9.399,6.877L-5.007,6.877L-5.007,4.515L-8.798,4.515L-8.798,2.381L-5.007,2.381L-5.007,0L-2.78,0L-2.78,2.381L1.202,2.381L1.202,4.515L-2.78,4.515L-2.78,6.877L1.817,6.877L1.817,9.011L-3.543,9.011C-3.93,10.177 -4.583,11.603 -5.269,12.713C-4.02,12.554 -2.399,12.204 -1.564,11.956C-1.779,11.462 -2.027,10.968 -2.308,10.494L-0.42,9.26C0.548,10.968 1.307,12.573 2.046,14.444L0,15.891ZM-10.281,3.986C-11.741,2.805 -13.186,1.849 -13.186,1.849L-11.779,0.122C-11.779,0.122 -10.386,0.935 -8.798,2.221L-10.281,3.986ZM-11.812,15.341L-13.753,13.985C-12.342,12.151 -11.125,8.483 -11.125,8.483L-9.309,9.684C-9.309,9.684 -10.525,13.597 -11.812,15.341M-10.897,7.811C-12.394,6.56 -13.806,5.785 -13.806,5.785L-12.466,3.986C-12.466,3.986 -11.073,4.707 -9.485,5.961L-10.897,7.811Z" style="fill:rgb(58,53,140);fill-rule:nonzero;"/> </g>       </g>       <g transform="matrix(4.166667,0,0,4.166667,0,0)"> <g transform="matrix(1,0,0,1,491.864,172.4149)">     <path d="M0,15.873C-3.071,14.303 -5.274,12.221 -6.562,8.836C-7.85,12.221 -10,14.303 -13.119,15.873L-14.659,13.703C-9.404,11.444 -7.745,7.373 -7.745,4.353L-7.745,0L-5.379,0L-5.379,4.353C-5.379,7.336 -3.724,11.444 1.531,13.703L0,15.873Z" style="fill:rgb(58,53,140);fill-rule:nonzero;"/> </g>       </g>       <g transform="matrix(4.166667,0,0,4.166667,0,0)"> <g transform="matrix(1,0,0,1,0,-234.577)">     <path d="M514.268,418.19L509.294,418.19L509.294,418.964L514.268,418.964L514.268,418.19ZM514.268,416.074L509.294,416.074L509.294,416.813L514.268,416.813L514.268,416.074ZM512.78,422.845L512.036,420.977C514.177,420.977 514.268,420.977 514.268,420.342L509.294,420.342L509.294,422.865L507.119,422.865L507.119,414.487L516.433,414.487L516.433,419.812C516.433,422.37 516.199,422.688 512.78,422.845M506.728,413.815L506.728,412.793L506.013,413.234C505.836,412.107 505.374,410.361 505.374,410.361L505.374,422.865L503.257,422.865L503.257,406.992L505.374,406.992L505.374,409.85L506.466,409.302C506.466,409.302 506.928,410.745 507.258,412.072L510.719,412.072L510.719,411.383L507.51,411.383L507.51,409.937L510.719,409.937L510.719,409.302L507,409.302L507,407.66L510.719,407.66L510.719,406.992L512.956,406.992L512.956,407.66L516.537,407.66L516.537,409.302L512.956,409.302L512.956,409.937L516.118,409.937L516.118,411.383L512.956,411.383L512.956,412.072L516.943,412.072L516.943,413.815L506.728,413.815ZM502.622,416.247L501.092,415.175C501.53,412.898 501.459,409.302 501.459,409.302L502.961,409.637C502.961,409.637 502.994,413.447 502.622,416.247" style="fill:rgb(58,53,140);fill-rule:nonzero;"/> </g>       </g>       <g transform="matrix(4.166667,0,0,4.166667,0,0)"> <g transform="matrix(1,0,0,1,531.2538,180.0328)">     <path d="M0,0.637C0.014,1.554 0.243,2.749 0.577,3.703C0.93,2.698 1.144,1.499 1.159,0.637L0,0.637ZM-1.817,0.637L-2.222,0.637L-2.222,6.367C-1.569,6.12 -1.03,5.767 -0.482,5.221C-1.254,3.632 -1.698,2.132 -1.817,0.637M2.27,8.255C1.621,7.76 1.106,7.282 0.596,6.665C0.086,7.319 -0.463,7.813 -1.135,8.255L-2.222,6.647L-2.222,8.255L-4.254,8.255L-4.254,-7.196L3.119,-7.196L3.119,-5.661C3.119,-2.435 2.852,-1.974 -0.2,-1.974L-1.059,-3.896C0.987,-3.896 1.001,-3.846 1.001,-4.76L1.001,-5.186L-2.222,-5.186L-2.222,-1.322L3.119,-1.322C3.119,0.263 2.713,3.386 1.722,5.221C2.256,5.732 2.785,6.066 3.472,6.4L2.27,8.255ZM-9.542,-1.479C-9.404,-1.024 -9.208,-0.337 -9.089,0.281L-7.921,0.281C-7.692,-0.282 -7.496,-1.003 -7.411,-1.479L-9.542,-1.479ZM-5.47,-1.479C-5.556,-1.057 -5.737,-0.337 -5.947,0.281L-4.64,0.281L-4.64,2.24L-7.411,2.24L-7.411,3.651L-4.869,3.651L-4.869,5.61L-7.411,5.61L-7.411,8.255L-9.528,8.255L-9.528,5.61L-12.07,5.61L-12.07,3.651L-9.528,3.651L-9.528,2.24L-12.299,2.24L-12.299,0.281L-10.973,0.281C-11.149,-0.354 -11.364,-1.076 -11.502,-1.479L-12.523,-1.479L-12.523,-3.422L-9.528,-3.422L-9.528,-4.604L-11.993,-4.604L-11.993,-6.507L-9.528,-6.507L-9.528,-7.618L-7.411,-7.618L-7.411,-6.507L-4.96,-6.507L-4.96,-4.604L-7.411,-4.604L-7.411,-3.422L-4.588,-3.422L-4.588,-1.479L-5.47,-1.479Z" style="fill:rgb(58,53,140);fill-rule:nonzero;"/> </g>       </g>       <g transform="matrix(4.166667,0,0,4.166667,0,0)"> <g transform="matrix(1,0,0,1,0,-234.561)">     <rect x="537.658" y="413.378" width="3.066" height="3.085" style="fill:rgb(58,53,140);"/> </g>       </g>       <g transform="matrix(4.166667,0,0,4.166667,0,0)"> <g transform="matrix(1,0,0,1,552.2601,185.5531)">     <path d="M0,-10.266C-1.073,-10.969 -3.295,-11.993 -4.635,-12.451L-5.942,-10.6C-4.635,-10.175 -2.432,-9.118 -1.373,-8.376L0,-10.266ZM7.391,-6.666L5.908,-8.747C3.419,-3.686 -0.725,-0.776 -7.315,-0.37L-6.171,2.185C1.712,0.651 4.678,-2.204 7.391,-6.666M-1.869,-6.474C-2.999,-7.177 -5.236,-8.217 -6.509,-8.641L-7.778,-6.736C-6.419,-6.279 -4.368,-5.29 -3.243,-4.497L-1.869,-6.474Z" style="fill:rgb(58,53,140);fill-rule:nonzero;"/> </g>       </g>       <g transform="matrix(4.166667,0,0,4.166667,0,0)"> <g transform="matrix(1,0,0,1,573.3761,174.1424)">     <path d="M0,13.317C-1.34,11.691 -3.247,9.966 -5.026,8.749C-6.667,10.494 -8.727,12.116 -11.316,13.562L-13.371,11.71C-7.53,9.296 -4.287,4.922 -3.157,2.009C-5.522,2.009 -9.275,2.064 -11.073,2.169L-11.092,-0.245C-8.784,-0.124 -4.635,-0.124 -1.359,-0.245L-0.019,0.866C-0.954,3.07 -2.079,5.131 -3.562,7.038C-1.516,8.431 0.687,10.123 2.117,11.462L0,13.317Z" style="fill:rgb(58,53,140);fill-rule:nonzero;"/> </g>       </g>       <g transform="matrix(4.166667,0,0,4.166667,0,0)"> <g transform="matrix(1,0,0,1,579.1654,186.2217)">     <path d="M0,-10.385L0,-12.537C2.38,-12.468 8.269,-12.468 10.634,-12.537L10.634,-10.385C8.269,-10.474 2.327,-10.455 0,-10.385M7.144,-6.085C6.876,-1.355 5.255,0.441 2.013,2.152L-0.157,0.372C3.457,-0.899 4.759,-3.138 4.778,-6.085C1.836,-6.066 -1.059,-6.047 -2.313,-6.031L-2.313,-8.268C0.42,-8.144 10.177,-8.22 12.995,-8.268L12.995,-6.031C11.903,-6.066 9.662,-6.066 7.144,-6.085" style="fill:rgb(58,53,140);fill-rule:nonzero;"/> </g>       </g>       <g transform="matrix(4.166667,0,0,4.166667,0,0)"> <g transform="matrix(1,0,0,1,605.6941,172.8723)">     <path d="M0,14.655C-0.248,13.986 -0.544,13.297 -0.901,12.609C-4.764,13.122 -10.367,13.807 -13.21,14.233L-13.615,11.603C-13.033,11.586 -12.327,11.57 -11.545,11.515C-9.981,7.972 -7.988,2.241 -7.535,0L-4.802,0.779C-5.98,3.406 -7.635,8.184 -9.046,11.359C-6.705,11.181 -4.073,10.938 -1.941,10.722C-2.766,9.312 -3.686,7.972 -4.549,6.86L-2.275,6.05C-0.901,7.689 1.202,10.722 2.313,13.122L0,14.655Z" style="fill:rgb(58,53,140);fill-rule:nonzero;"/> </g>       </g>       <g transform="matrix(4.166667,0,0,4.166667,0,0)"> <g transform="matrix(1,0,0,1,0,-234.155)">     <path d="M622.17,409.268L620.177,409.268L620.177,412.988L622.17,412.988L622.17,409.268ZM614.168,414.117L613.038,414.117L613.038,419.442L614.168,419.442L614.168,414.117ZM624.268,415.176L624.268,422.443L622.17,422.443L622.17,415.176L620.143,415.176C620.034,418.048 619.542,420.73 617.745,422.423L616.138,420.765L616.138,421.47L613.143,421.47L613.143,422.443L611.04,422.443L611.04,416.27C610.692,416.921 610.372,417.291 610.372,417.291L609.757,414.418C609.757,414.418 611.502,412.531 611.851,409.021L610.177,409.021L610.177,406.992L616.386,406.992L616.386,409.021L613.987,409.021C613.83,410.079 613.548,411.208 613.214,412.09L616.138,412.09L616.138,420.465C617.521,419.161 617.935,417.536 618.045,415.176L616.614,415.176L616.614,412.988L618.078,412.988L618.078,409.268L616.915,409.268L616.915,407.082L625.294,407.082L625.294,409.268L624.268,409.268L624.268,412.988L625.627,412.988L625.627,415.176L624.268,415.176Z" style="fill:rgb(58,53,140);fill-rule:nonzero;"/> </g>       </g>       <g transform="matrix(4.166667,0,0,4.166667,0,0)"> <g transform="matrix(1,0,0,1,640.9779,184.126)">     <path d="M0,-7.549L1.235,-7.126C0.734,-4.906 0.458,-4.57 -1.13,-4.57L-3.705,-4.57C-4.764,-4.57 -5.241,-4.676 -5.241,-5.591L-5.241,-8.307L-3.109,-8.307L-3.109,-6.666C-3.109,-6.457 -3,-6.457 -2.737,-6.457L-1.855,-6.457C-1.13,-6.457 -1.006,-6.666 -0.863,-7.866L-0.248,-7.656L-0.248,-8.715L-8.011,-8.715L-6.176,-8.08C-6.948,-5.91 -9.037,-4.586 -11.664,-4.129L-12.842,-6.282C-9.771,-6.578 -8.803,-7.407 -8.24,-8.715L-11.044,-8.715L-11.044,-7.126L-13.157,-7.126L-13.157,-10.758L-6.919,-10.758L-6.919,-11.711L-4.535,-11.711L-4.535,-10.758L1.865,-10.758L1.865,-7.549L0,-7.549ZM-0.038,3.807L-2.012,3.807C-3.138,3.807 -3.867,3.683 -3.724,2.325L-3.252,-1.448L-6.261,-1.448C-6.862,1.215 -8.412,3.138 -12.346,4.162L-13.6,2.148C-10.462,1.442 -9.123,0.492 -8.484,-1.448L-12.403,-1.448L-12.403,-3.565L-8.169,-3.565L-8.116,-5.346L-5.966,-5.346L-6.018,-3.565L-0.863,-3.565L-1.416,1.463C-1.416,1.691 -1.273,1.691 -1.078,1.691L-0.272,1.691C0.105,1.691 0.263,1.656 0.525,-1.202L2.47,-0.105C2.079,3.118 1.588,3.807 -0.038,3.807" style="fill:rgb(58,53,140);fill-rule:nonzero;"/> </g>       </g>       <g transform="matrix(4.166667,0,0,4.166667,0,0)"> <g transform="matrix(1,0,0,1,657.4875,181.7811)">     <path d="M0,-2.189C-0.282,-2.156 -0.549,-2.117 -0.811,-2.117C-0.811,-1.976 -0.777,-1.625 -0.777,-1.486L0.157,-1.486C0.105,-1.766 0,-2.189 0,-2.189M-1.145,-6.07C-1.13,-5.276 -1.078,-4.445 -1.006,-3.74L-0.634,-3.74C-0.429,-3.988 -0.215,-4.269 -0.019,-4.552C-0.334,-5.044 -0.744,-5.594 -1.145,-6.07M-3.071,-6.155C-3.529,-5.276 -4.125,-4.305 -4.568,-3.703C-4.354,-3.703 -3.72,-3.793 -3.543,-3.827C-3.543,-4.058 -3.581,-4.184 -3.601,-4.34L-3.052,-4.552C-3.052,-5.013 -3.071,-5.557 -3.071,-6.155M-0.849,4.916C-1.855,5.657 -2.842,6.172 -3.634,6.507L-4.922,4.793C-3.796,4.442 -2.432,3.787 -1.66,3.17C-1.993,2.341 -2.313,1.337 -2.489,0.334L-4.106,0.334C-4.106,0.474 -4.125,0.633 -4.125,0.774C-3.281,1.39 -2.609,1.92 -2.313,2.199L-3.458,3.861C-3.777,3.417 -4.178,3.014 -4.459,2.767C-4.888,4.265 -5.522,5.359 -6.295,6.152L-7.692,4.282C-6.829,3.473 -6.028,2.01 -5.999,0.334L-6.829,0.334L-6.829,-1.486L-2.718,-1.486C-2.733,-1.625 -2.771,-1.819 -2.785,-1.993L-3.405,-1.747C-3.405,-1.96 -3.405,-2.208 -3.419,-2.366C-4.216,-2.189 -5.608,-1.993 -6.672,-1.923L-7.458,0.104C-7.83,-0.742 -8.097,-1.518 -8.307,-2.665L-8.307,6.507L-10.334,6.507L-10.334,-1.486C-10.563,0.051 -10.935,1.372 -11.502,2.554L-12.432,-0.479C-11.674,-1.661 -10.983,-3.143 -10.563,-4.552L-12.008,-4.552L-12.008,-6.579L-10.334,-6.579L-10.334,-9.366L-8.307,-9.366L-8.307,-6.579L-7.177,-6.579L-7.177,-4.552L-8.188,-4.552C-7.802,-3.74 -7.354,-3.034 -6.772,-2.435L-7.02,-3.583C-7.02,-3.583 -6.791,-3.565 -6.405,-3.617C-6.209,-3.793 -5.875,-4.216 -5.685,-4.502C-6.009,-5.062 -6.562,-5.858 -7.077,-6.494L-6.209,-8.027C-6.123,-7.922 -6.028,-7.797 -5.928,-7.656C-5.661,-8.13 -5.47,-8.75 -5.327,-9.28L-3.949,-8.664C-4.268,-7.797 -4.712,-6.897 -5.079,-6.316C-4.974,-6.192 -4.888,-6.052 -4.812,-5.911C-4.535,-6.316 -4.235,-6.915 -3.982,-7.478L-3.104,-6.812C-3.124,-7.496 -3.143,-8.502 -3.143,-9.366L-1.221,-9.366C-1.221,-8.664 -1.235,-7.797 -1.221,-7.056L-0.634,-8.096C-0.549,-7.99 -0.458,-7.866 -0.353,-7.728C-0.091,-8.204 0.105,-8.75 0.248,-9.28L1.659,-8.714C1.302,-7.797 0.92,-6.987 0.529,-6.403C0.615,-6.278 0.777,-6.07 0.868,-5.962C1.078,-6.298 1.411,-6.934 1.659,-7.478L2.804,-6.65C2.365,-5.768 1.516,-4.445 1.078,-3.793C1.268,-3.793 1.659,-3.81 1.903,-3.846C1.888,-4.076 1.845,-4.358 1.817,-4.586L2.928,-4.905C3.085,-4.039 3.228,-2.982 3.295,-2.156L2.026,-1.837C2.026,-1.837 2.026,-2.241 2.012,-2.418C1.798,-2.366 1.536,-2.331 1.302,-2.331C1.302,-2.331 1.445,-1.747 1.497,-1.486L3.014,-1.486L3.014,0.334L-0.51,0.334C-0.482,0.686 -0.315,1.267 -0.124,1.779C0.262,1.39 0.648,0.917 0.92,0.44L2.465,1.267C1.974,2.112 1.268,2.855 0.648,3.489C1.125,4.461 1.483,4.742 2.079,2.45L3.433,3.967C2.217,7.158 0.601,7.177 -0.849,4.916" style="fill:rgb(58,53,140);fill-rule:nonzero;"/> </g>       </g>       <g transform="matrix(4.166667,0,0,4.166667,0,0)"> <g transform="matrix(1,0,0,1,0,-234.577)">     <path d="M675.985,417.942L674.335,417.942L674.335,418.859L675.985,418.859L675.985,417.942ZM675.985,415.879L674.335,415.879L674.335,416.709L675.985,416.709L675.985,415.879ZM674.474,411.332L672.309,411.332L672.309,412.038L674.474,412.038L674.474,411.332ZM674.474,409.18L672.309,409.18L672.309,409.883L674.474,409.883L674.474,409.18ZM672.499,417.942L670.806,417.942L670.806,418.859L672.499,418.859L672.499,417.942ZM672.499,415.879L670.806,415.879L670.806,416.709L672.499,416.709L672.499,415.879ZM678.036,420.41C678.036,422.598 677.826,422.737 674.989,422.865L674.173,421.066C675.8,421.066 675.957,421.047 675.957,420.41L670.806,420.41L670.806,422.865L668.756,422.865L668.756,420.41L668.074,420.41L668.074,418.859L668.756,418.859L668.756,414.469L672.394,414.469L672.394,413.728L668.394,413.728L668.394,412.037L670.225,412.037L670.225,411.332L668.866,411.332L668.866,409.883L670.225,409.883L670.225,409.18L668.584,409.18L668.584,407.66L670.225,407.66L670.225,406.992L672.309,406.992L672.309,407.66L674.474,407.66L674.474,406.992L676.577,406.992L676.577,407.66L678.265,407.66L678.265,409.18L676.577,409.18L676.577,409.883L677.965,409.883L677.965,411.332L676.577,411.332L676.577,412.037L678.546,412.037L678.546,413.728L674.431,413.728L674.431,414.469L678.036,414.469L678.036,418.859L678.546,418.859L678.546,420.41L678.036,420.41ZM667.702,416.514C667.297,415.687 667.034,414.84 666.825,413.693L666.825,422.865L664.793,422.865L664.793,414.873C664.564,416.409 664.192,417.73 663.63,418.912L662.695,415.879C663.453,414.697 664.14,413.215 664.564,411.806L663.119,411.806L663.119,409.779L664.793,409.779L664.793,406.992L666.825,406.992L666.825,409.779L668.289,409.779L668.289,411.806L666.944,411.806C667.368,412.706 667.921,413.516 668.565,414.169L667.702,416.514Z" style="fill:rgb(58,53,140);fill-rule:nonzero;"/> </g>       </g>       <g transform="matrix(4.166667,0,0,4.166667,0,0)"> <g transform="matrix(1,0,0,1,333.8382,172.4346)">     <path d="M0,15.833C-2.942,14.3 -5.062,12.024 -6.45,8.85C-7.613,11.831 -9.54,14.159 -13.012,15.853L-14.547,13.75C-10.174,12.007 -8.445,9.185 -7.847,6.187L-14.108,6.187L-14.108,3.966L-7.652,3.966L-7.652,-0.02L-5.432,-0.02L-5.432,3.966L0.918,3.966L0.918,6.187L-5.2,6.187C-4.266,9.821 -1.586,12.378 1.361,13.735L0,15.833Z" style="fill:rgb(58,53,140);fill-rule:nonzero;"/> </g>       </g>       <g transform="matrix(4.166667,0,0,4.166667,0,0)"> <g transform="matrix(1,0,0,1,350.245,180.9551)">     <path d="M0,-1.382L0,-3.39L-10.72,-3.39L-10.72,-1.363L-12.871,-1.363L-12.871,-5.434L-10.739,-5.434C-11.056,-6.125 -11.55,-6.83 -12.151,-7.535L-10.174,-8.701C-9.304,-7.518 -8.5,-6.142 -8.5,-6.142L-9.735,-5.434L-6.19,-5.434C-6.543,-6.142 -7.072,-6.936 -7.616,-7.658L-5.677,-8.715C-4.793,-7.481 -4.175,-6.194 -4.175,-6.194L-5.556,-5.434L-3.171,-5.434C-2.344,-6.371 -1.636,-7.429 -1.04,-8.664L1.059,-7.696C0.51,-6.727 -0.019,-6.002 -0.548,-5.434L2.155,-5.436L2.155,-1.382L0,-1.382ZM-3.968,3.75C-3.968,6.978 -3.81,7.333 -8.255,7.333L-9.151,5.074C-6.066,5.074 -6.099,5.23 -6.099,4.051L-6.099,3.75L-13.121,3.75L-13.121,1.652L-6.099,1.652L-6.099,0.404L-5.536,0.404C-4.793,0.101 -3.932,-0.304 -3.932,-0.304L-10.174,-0.304L-10.174,-2.244L-0.548,-2.244L-0.548,-0.66C-0.548,-0.66 -2.22,0.542 -3.968,1.442L-3.968,1.652L2.399,1.651L2.399,3.75L-3.968,3.75Z" style="fill:rgb(58,53,140);fill-rule:nonzero;"/> </g>       </g>       <g transform="matrix(4.166667,0,0,4.166667,0,0)"> <g transform="matrix(1,0,0,1,368.8576,172.4176)">     <path d="M0,15.85C-2.38,14.529 -4.444,12.041 -4.444,12.041L-2.666,10.648C-2.666,10.648 -1.076,12.625 1.536,13.909L0,15.85ZM-4.354,5.006L-8.341,5.006L-8.341,8.252L-4.354,8.252L-4.354,5.006ZM-14.039,10.365L-14.039,8.252L-10.529,8.252L-10.529,5.006L-13.264,5.006L-13.264,2.889L-10.529,2.889L-10.529,-0.02L-8.341,-0.02L-8.341,2.889L-4.354,2.889L-4.354,-0.02L-2.172,-0.02L-2.172,2.889L0.582,2.889L0.582,5.006L-2.172,5.006L-2.172,8.252L1.392,8.252L1.392,10.365L-14.039,10.365ZM-12.63,15.87L-14.301,13.982C-11.762,12.78 -10.108,10.577 -10.108,10.577L-8.324,11.97C-8.324,11.97 -10.086,14.529 -12.63,15.87" style="fill:rgb(58,53,140);fill-rule:nonzero;"/> </g>       </g>       <g transform="matrix(4.166667,0,0,4.166667,0,0)"> <g transform="matrix(1,0,0,1,0,-234.155)">     <path d="M382.229,415.352L378.099,415.352L378.099,417.169L382.229,417.169L382.229,415.352ZM376.197,413.306L384.132,413.306L384.132,419.213L376.197,419.213L376.197,413.306ZM375.737,410.168L384.557,410.168L384.557,412.156L375.737,412.156L375.737,410.168ZM384.275,422.443L383.34,420.201C385.384,420.218 385.348,420.201 385.348,419.161L385.348,409.108L374.981,409.108L374.981,422.443L372.863,422.443L372.863,406.992L387.465,406.992L387.465,418.756C387.465,421.736 387.68,422.353 384.275,422.443" style="fill:rgb(58,53,140);fill-rule:nonzero;"/> </g>       </g>       <g transform="matrix(4.166667,0,0,4.166667,0,0)"> <g transform="matrix(1,0,0,1,401.4759,172.4149)">     <path d="M0,15.873L-0.882,13.614C1.76,13.614 1.69,13.703 1.69,12.591L1.69,0L3.844,0L3.844,12.186C3.844,15.309 4.003,15.873 0,15.873M-1.817,1.059L0.26,1.059L0.26,12.061L-1.817,12.061L-1.817,1.059ZM-3.603,12.555C-4.445,11.551 -5.456,9.841 -5.944,8.326L-5.944,15.873L-7.971,15.873L-7.971,9.082C-8.45,10.599 -9.438,12.61 -10.336,13.632L-11.588,11.073C-10.425,10.14 -8.856,8.217 -8.164,6.702L-11.08,6.702L-11.08,4.656L-7.971,4.656L-7.971,2.787C-8.799,2.858 -9.705,2.909 -10.618,2.927L-10.987,0.723C-6.3,0.723 -3.846,0 -3.846,0L-2.93,2.116C-2.93,2.116 -4.13,2.363 -5.944,2.574L-5.944,4.656L-2.754,4.656L-2.754,6.702L-5.63,6.702C-4.817,7.956 -3.408,9.417 -2.542,9.999L-3.603,12.555Z" style="fill:rgb(58,53,140);fill-rule:nonzero;"/> </g>       </g>       <g transform="matrix(4.166667,0,0,4.166667,0,0)"> <g transform="matrix(1,0,0,1,0,-234.155)">     <path d="M420.476,413.184L416.47,413.184L416.47,415.369L420.476,415.369L420.476,413.184ZM420.476,409.108L416.47,409.108L416.47,411.155L420.476,411.155L420.476,409.108ZM414.353,409.108L410.541,409.108L410.541,411.155L414.353,411.155L414.353,409.108ZM414.353,413.184L410.541,413.184C410.541,413.888 410.522,414.716 410.491,415.37L414.353,415.37L414.353,413.184ZM418.969,422.443L418.058,420.184C420.161,420.184 420.476,420.113 420.476,419.161L420.476,417.396L416.47,417.396L416.47,422.194L414.353,422.194L414.353,417.396L410.35,417.396C410.136,419.442 409.769,421.048 408.92,422.443L407.317,420.465C408.166,418.63 408.429,416.463 408.429,412.035L408.429,406.992L422.607,406.992L422.607,418.756C422.607,421.631 422.326,422.282 418.969,422.443" style="fill:rgb(58,53,140);fill-rule:nonzero;"/> </g>       </g>       <g transform="matrix(4.166667,0,0,4.166667,0,0)"> <g transform="matrix(1,0,0,1,437.6004,181.7811)">     <path d="M0,-2.189C-0.282,-2.156 -0.548,-2.117 -0.815,-2.117C-0.815,-1.976 -0.773,-1.625 -0.773,-1.486L0.157,-1.486C0.105,-1.766 0,-2.189 0,-2.189M-1.145,-6.07C-1.126,-5.276 -1.078,-4.445 -1.002,-3.74L-0.634,-3.74C-0.425,-3.988 -0.21,-4.269 -0.014,-4.552C-0.334,-5.044 -0.739,-5.594 -1.145,-6.07M-3.066,-6.155C-3.529,-5.276 -4.125,-4.305 -4.568,-3.703C-4.354,-3.703 -3.724,-3.793 -3.543,-3.827C-3.543,-4.058 -3.577,-4.184 -3.596,-4.34L-3.052,-4.552C-3.052,-5.013 -3.066,-5.557 -3.066,-6.155M-0.844,4.916C-1.85,5.657 -2.837,6.172 -3.629,6.507L-4.917,4.793C-3.786,4.442 -2.432,3.787 -1.66,3.17C-1.993,2.341 -2.308,1.337 -2.489,0.334L-4.111,0.334C-4.111,0.474 -4.125,0.633 -4.125,0.774C-3.281,1.39 -2.609,1.92 -2.308,2.199L-3.458,3.861C-3.777,3.417 -4.178,3.014 -4.464,2.767C-4.888,4.265 -5.518,5.359 -6.295,6.152L-7.687,4.282C-6.824,3.473 -6.032,2.01 -5.994,0.334L-6.824,0.334L-6.824,-1.486L-2.714,-1.486C-2.737,-1.625 -2.766,-1.819 -2.785,-1.993L-3.4,-1.747C-3.4,-1.96 -3.4,-2.208 -3.419,-2.366C-4.216,-2.189 -5.608,-1.993 -6.662,-1.923L-7.454,0.104C-7.83,-0.742 -8.093,-1.518 -8.307,-2.665L-8.307,6.507L-10.334,6.507L-10.334,-1.486C-10.563,0.051 -10.935,1.372 -11.497,2.554L-12.432,-0.479C-11.674,-1.661 -10.987,-3.143 -10.563,-4.552L-12.008,-4.552L-12.008,-6.579L-10.334,-6.579L-10.334,-9.366L-8.307,-9.366L-8.307,-6.579L-7.177,-6.579L-7.177,-4.552L-8.178,-4.552C-7.797,-3.74 -7.354,-3.034 -6.772,-2.435L-7.02,-3.583C-7.02,-3.583 -6.791,-3.565 -6.4,-3.617C-6.209,-3.793 -5.875,-4.216 -5.68,-4.502C-6.013,-5.062 -6.562,-5.858 -7.072,-6.494L-6.209,-8.027C-6.118,-7.922 -6.032,-7.797 -5.928,-7.656C-5.661,-8.13 -5.47,-8.75 -5.327,-9.28L-3.949,-8.664C-4.268,-7.797 -4.707,-6.897 -5.079,-6.316C-4.969,-6.192 -4.888,-6.052 -4.817,-5.911C-4.53,-6.316 -4.23,-6.915 -3.987,-7.478L-3.104,-6.812C-3.124,-7.496 -3.138,-8.502 -3.138,-9.366L-1.216,-9.366C-1.216,-8.664 -1.235,-7.797 -1.216,-7.056L-0.634,-8.096C-0.548,-7.99 -0.458,-7.866 -0.353,-7.728C-0.086,-8.204 0.105,-8.75 0.248,-9.28L1.66,-8.714C1.307,-7.797 0.92,-6.987 0.529,-6.403C0.615,-6.278 0.777,-6.07 0.863,-5.962C1.078,-6.298 1.411,-6.934 1.66,-7.478L2.799,-6.65C2.365,-5.768 1.516,-4.445 1.078,-3.793C1.268,-3.793 1.66,-3.81 1.907,-3.846C1.888,-4.076 1.85,-4.358 1.817,-4.586L2.928,-4.905C3.09,-4.039 3.224,-2.982 3.3,-2.156L2.031,-1.837C2.031,-1.837 2.031,-2.241 2.012,-2.418C1.802,-2.366 1.54,-2.331 1.307,-2.331C1.307,-2.331 1.445,-1.747 1.497,-1.486L3.019,-1.486L3.019,0.334L-0.51,0.334C-0.477,0.686 -0.32,1.267 -0.124,1.779C0.267,1.39 0.653,0.917 0.92,0.44L2.465,1.267C1.974,2.112 1.268,2.855 0.653,3.489C1.125,4.461 1.478,4.742 2.084,2.45L3.438,3.967C2.222,7.158 0.601,7.177 -0.844,4.916" style="fill:rgb(58,53,140);fill-rule:nonzero;"/> </g>       </g>       <g transform="matrix(4.166667,0,0,4.166667,0,0)"> <g transform="matrix(1,0,0,1,0,-234.065)">     <path d="M455.893,411.118L453.194,411.118L453.194,412.019L455.893,412.019L455.893,411.118ZM455.893,408.701L453.194,408.701L453.194,409.53L455.893,409.53L455.893,408.701ZM455.893,413.657L452.083,413.657L453.933,414.062C453.933,414.062 453.676,414.68 453.385,415.014L454.644,415.014L454.644,416.566L451.749,416.566L451.716,417.201L455.187,417.201L455.187,418.807L452.384,418.807C453.07,419.388 453.862,419.669 454.997,419.756L454.749,420.218C455.841,420.218 455.893,420.075 455.893,418.982L455.893,413.657ZM448.115,411.118L445.559,411.118L445.559,412.019L448.115,412.019L448.115,411.118ZM448.115,408.701L445.559,408.701L445.559,409.53L448.115,409.53L448.115,408.701ZM455.102,422.263L454.501,420.745L453.9,421.789C452.469,421.187 451.363,420.307 450.676,418.877C449.937,420.392 448.907,421.309 447.128,421.858L446.07,419.865C447.343,419.756 448.206,419.424 448.84,418.807L446.246,418.807L446.246,417.201L449.598,417.201L449.656,416.566L446.742,416.566L446.742,415.014L448.101,415.014C447.92,414.593 447.586,414.115 447.586,414.115L449.332,413.657L445.559,413.657L445.559,422.353L443.442,422.353L443.442,406.992L450.233,406.992L450.233,413.657L449.632,413.657C449.775,413.975 450.009,414.593 450.128,415.014L451.344,415.014C451.559,414.61 451.716,414.08 451.816,413.657L451.077,413.657L451.077,406.992L458.01,406.992L458.01,418.578C458.01,421.592 457.944,422.263 455.102,422.263" style="fill:rgb(58,53,140);fill-rule:nonzero;"/> </g>       </g>       <g transform="matrix(4.166667,0,0,4.166667,0,0)"> <g transform="matrix(1,0,0,1,474.272,172.3969)">     <path d="M0,15.891C-0.196,15.269 -0.405,14.584 -0.648,13.985C-3.19,14.692 -6.028,15.167 -8.989,15.431L-9.499,13.032C-8.97,13.032 -8.498,13.014 -7.95,12.962C-7.139,11.656 -6.486,10.281 -6.047,9.011L-9.399,9.011L-9.399,6.877L-5.007,6.877L-5.007,4.515L-8.798,4.515L-8.798,2.381L-5.007,2.381L-5.007,0L-2.78,0L-2.78,2.381L1.202,2.381L1.202,4.515L-2.78,4.515L-2.78,6.877L1.817,6.877L1.817,9.011L-3.543,9.011C-3.93,10.177 -4.583,11.603 -5.269,12.713C-4.02,12.554 -2.399,12.204 -1.564,11.956C-1.779,11.462 -2.027,10.968 -2.308,10.494L-0.42,9.26C0.548,10.968 1.307,12.573 2.046,14.444L0,15.891ZM-10.281,3.986C-11.741,2.805 -13.186,1.849 -13.186,1.849L-11.779,0.122C-11.779,0.122 -10.386,0.935 -8.798,2.221L-10.281,3.986ZM-11.812,15.341L-13.753,13.985C-12.342,12.151 -11.125,8.483 -11.125,8.483L-9.309,9.684C-9.309,9.684 -10.525,13.597 -11.812,15.341M-10.897,7.811C-12.394,6.56 -13.806,5.785 -13.806,5.785L-12.466,3.986C-12.466,3.986 -11.073,4.707 -9.485,5.961L-10.897,7.811Z" style="fill:rgb(58,53,140);fill-rule:nonzero;"/> </g>       </g>       <g transform="matrix(4.166667,0,0,4.166667,0,0)"> <g transform="matrix(1,0,0,1,491.864,172.4149)">     <path d="M0,15.873C-3.071,14.303 -5.274,12.221 -6.562,8.836C-7.85,12.221 -10,14.303 -13.119,15.873L-14.659,13.703C-9.404,11.444 -7.745,7.373 -7.745,4.353L-7.745,0L-5.379,0L-5.379,4.353C-5.379,7.336 -3.724,11.444 1.531,13.703L0,15.873Z" style="fill:rgb(58,53,140);fill-rule:nonzero;"/> </g>       </g>       <g transform="matrix(4.166667,0,0,4.166667,0,0)"> <g transform="matrix(1,0,0,1,0,-234.577)">     <path d="M514.268,418.19L509.294,418.19L509.294,418.964L514.268,418.964L514.268,418.19ZM514.268,416.074L509.294,416.074L509.294,416.813L514.268,416.813L514.268,416.074ZM512.78,422.845L512.036,420.977C514.177,420.977 514.268,420.977 514.268,420.342L509.294,420.342L509.294,422.865L507.119,422.865L507.119,414.487L516.433,414.487L516.433,419.812C516.433,422.37 516.199,422.688 512.78,422.845M506.728,413.815L506.728,412.793L506.013,413.234C505.836,412.107 505.374,410.361 505.374,410.361L505.374,422.865L503.257,422.865L503.257,406.992L505.374,406.992L505.374,409.85L506.466,409.302C506.466,409.302 506.928,410.745 507.258,412.072L510.719,412.072L510.719,411.383L507.51,411.383L507.51,409.937L510.719,409.937L510.719,409.302L507,409.302L507,407.66L510.719,407.66L510.719,406.992L512.956,406.992L512.956,407.66L516.537,407.66L516.537,409.302L512.956,409.302L512.956,409.937L516.118,409.937L516.118,411.383L512.956,411.383L512.956,412.072L516.943,412.072L516.943,413.815L506.728,413.815ZM502.622,416.247L501.092,415.175C501.53,412.898 501.459,409.302 501.459,409.302L502.961,409.637C502.961,409.637 502.994,413.447 502.622,416.247" style="fill:rgb(58,53,140);fill-rule:nonzero;"/> </g>       </g>       <g transform="matrix(4.166667,0,0,4.166667,0,0)"> <g transform="matrix(1,0,0,1,531.2538,180.0328)">     <path d="M0,0.637C0.014,1.554 0.243,2.749 0.577,3.703C0.93,2.698 1.144,1.499 1.159,0.637L0,0.637ZM-1.817,0.637L-2.222,0.637L-2.222,6.367C-1.569,6.12 -1.03,5.767 -0.482,5.221C-1.254,3.632 -1.698,2.132 -1.817,0.637M2.27,8.255C1.621,7.76 1.106,7.282 0.596,6.665C0.086,7.319 -0.463,7.813 -1.135,8.255L-2.222,6.647L-2.222,8.255L-4.254,8.255L-4.254,-7.196L3.119,-7.196L3.119,-5.661C3.119,-2.435 2.852,-1.974 -0.2,-1.974L-1.059,-3.896C0.987,-3.896 1.001,-3.846 1.001,-4.76L1.001,-5.186L-2.222,-5.186L-2.222,-1.322L3.119,-1.322C3.119,0.263 2.713,3.386 1.722,5.221C2.256,5.732 2.785,6.066 3.472,6.4L2.27,8.255ZM-9.542,-1.479C-9.404,-1.024 -9.208,-0.337 -9.089,0.281L-7.921,0.281C-7.692,-0.282 -7.496,-1.003 -7.411,-1.479L-9.542,-1.479ZM-5.47,-1.479C-5.556,-1.057 -5.737,-0.337 -5.947,0.281L-4.64,0.281L-4.64,2.24L-7.411,2.24L-7.411,3.651L-4.869,3.651L-4.869,5.61L-7.411,5.61L-7.411,8.255L-9.528,8.255L-9.528,5.61L-12.07,5.61L-12.07,3.651L-9.528,3.651L-9.528,2.24L-12.299,2.24L-12.299,0.281L-10.973,0.281C-11.149,-0.354 -11.364,-1.076 -11.502,-1.479L-12.523,-1.479L-12.523,-3.422L-9.528,-3.422L-9.528,-4.604L-11.993,-4.604L-11.993,-6.507L-9.528,-6.507L-9.528,-7.618L-7.411,-7.618L-7.411,-6.507L-4.96,-6.507L-4.96,-4.604L-7.411,-4.604L-7.411,-3.422L-4.588,-3.422L-4.588,-1.479L-5.47,-1.479Z" style="fill:rgb(58,53,140);fill-rule:nonzero;"/> </g>       </g>       <g transform="matrix(4.166667,0,0,4.166667,0,0)"> <g transform="matrix(1,0,0,1,0,-234.561)">     <rect x="537.658" y="413.378" width="3.066" height="3.085" style="fill:rgb(58,53,140);"/> </g>       </g>       <g transform="matrix(4.166667,0,0,4.166667,0,0)"> <g transform="matrix(1,0,0,1,552.2601,185.5531)">     <path d="M0,-10.266C-1.073,-10.969 -3.295,-11.993 -4.635,-12.451L-5.942,-10.6C-4.635,-10.175 -2.432,-9.118 -1.373,-8.376L0,-10.266ZM7.391,-6.666L5.908,-8.747C3.419,-3.686 -0.725,-0.776 -7.315,-0.37L-6.171,2.185C1.712,0.651 4.678,-2.204 7.391,-6.666M-1.869,-6.474C-2.999,-7.177 -5.236,-8.217 -6.509,-8.641L-7.778,-6.736C-6.419,-6.279 -4.368,-5.29 -3.243,-4.497L-1.869,-6.474Z" style="fill:rgb(58,53,140);fill-rule:nonzero;"/> </g>       </g>       <g transform="matrix(4.166667,0,0,4.166667,0,0)"> <g transform="matrix(1,0,0,1,573.3761,174.1424)">     <path d="M0,13.317C-1.34,11.691 -3.247,9.966 -5.026,8.749C-6.667,10.494 -8.727,12.116 -11.316,13.562L-13.371,11.71C-7.53,9.296 -4.287,4.922 -3.157,2.009C-5.522,2.009 -9.275,2.064 -11.073,2.169L-11.092,-0.245C-8.784,-0.124 -4.635,-0.124 -1.359,-0.245L-0.019,0.866C-0.954,3.07 -2.079,5.131 -3.562,7.038C-1.516,8.431 0.687,10.123 2.117,11.462L0,13.317Z" style="fill:rgb(58,53,140);fill-rule:nonzero;"/> </g>       </g>       <g transform="matrix(4.166667,0,0,4.166667,0,0)"> <g transform="matrix(1,0,0,1,579.1654,186.2217)">     <path d="M0,-10.385L0,-12.537C2.38,-12.468 8.269,-12.468 10.634,-12.537L10.634,-10.385C8.269,-10.474 2.327,-10.455 0,-10.385M7.144,-6.085C6.876,-1.355 5.255,0.441 2.013,2.152L-0.157,0.372C3.457,-0.899 4.759,-3.138 4.778,-6.085C1.836,-6.066 -1.059,-6.047 -2.313,-6.031L-2.313,-8.268C0.42,-8.144 10.177,-8.22 12.995,-8.268L12.995,-6.031C11.903,-6.066 9.662,-6.066 7.144,-6.085" style="fill:rgb(58,53,140);fill-rule:nonzero;"/> </g>       </g>       <g transform="matrix(4.166667,0,0,4.166667,0,0)"> <g transform="matrix(1,0,0,1,605.6941,172.8723)">     <path d="M0,14.655C-0.248,13.986 -0.544,13.297 -0.901,12.609C-4.764,13.122 -10.367,13.807 -13.21,14.233L-13.615,11.603C-13.033,11.586 -12.327,11.57 -11.545,11.515C-9.981,7.972 -7.988,2.241 -7.535,0L-4.802,0.779C-5.98,3.406 -7.635,8.184 -9.046,11.359C-6.705,11.181 -4.073,10.938 -1.941,10.722C-2.766,9.312 -3.686,7.972 -4.549,6.86L-2.275,6.05C-0.901,7.689 1.202,10.722 2.313,13.122L0,14.655Z" style="fill:rgb(58,53,140);fill-rule:nonzero;"/> </g>       </g>       <g transform="matrix(4.166667,0,0,4.166667,0,0)"> <g transform="matrix(1,0,0,1,0,-234.155)">     <path d="M622.17,409.268L620.177,409.268L620.177,412.988L622.17,412.988L622.17,409.268ZM614.168,414.117L613.038,414.117L613.038,419.442L614.168,419.442L614.168,414.117ZM624.268,415.176L624.268,422.443L622.17,422.443L622.17,415.176L620.143,415.176C620.034,418.048 619.542,420.73 617.745,422.423L616.138,420.765L616.138,421.47L613.143,421.47L613.143,422.443L611.04,422.443L611.04,416.27C610.692,416.921 610.372,417.291 610.372,417.291L609.757,414.418C609.757,414.418 611.502,412.531 611.851,409.021L610.177,409.021L610.177,406.992L616.386,406.992L616.386,409.021L613.987,409.021C613.83,410.079 613.548,411.208 613.214,412.09L616.138,412.09L616.138,420.465C617.521,419.161 617.935,417.536 618.045,415.176L616.614,415.176L616.614,412.988L618.078,412.988L618.078,409.268L616.915,409.268L616.915,407.082L625.294,407.082L625.294,409.268L624.268,409.268L624.268,412.988L625.627,412.988L625.627,415.176L624.268,415.176Z" style="fill:rgb(58,53,140);fill-rule:nonzero;"/> </g>       </g>       <g transform="matrix(4.166667,0,0,4.166667,0,0)"> <g transform="matrix(1,0,0,1,640.9779,184.126)">     <path d="M0,-7.549L1.235,-7.126C0.734,-4.906 0.458,-4.57 -1.13,-4.57L-3.705,-4.57C-4.764,-4.57 -5.241,-4.676 -5.241,-5.591L-5.241,-8.307L-3.109,-8.307L-3.109,-6.666C-3.109,-6.457 -3,-6.457 -2.737,-6.457L-1.855,-6.457C-1.13,-6.457 -1.006,-6.666 -0.863,-7.866L-0.248,-7.656L-0.248,-8.715L-8.011,-8.715L-6.176,-8.08C-6.948,-5.91 -9.037,-4.586 -11.664,-4.129L-12.842,-6.282C-9.771,-6.578 -8.803,-7.407 -8.24,-8.715L-11.044,-8.715L-11.044,-7.126L-13.157,-7.126L-13.157,-10.758L-6.919,-10.758L-6.919,-11.711L-4.535,-11.711L-4.535,-10.758L1.865,-10.758L1.865,-7.549L0,-7.549ZM-0.038,3.807L-2.012,3.807C-3.138,3.807 -3.867,3.683 -3.724,2.325L-3.252,-1.448L-6.261,-1.448C-6.862,1.215 -8.412,3.138 -12.346,4.162L-13.6,2.148C-10.462,1.442 -9.123,0.492 -8.484,-1.448L-12.403,-1.448L-12.403,-3.565L-8.169,-3.565L-8.116,-5.346L-5.966,-5.346L-6.018,-3.565L-0.863,-3.565L-1.416,1.463C-1.416,1.691 -1.273,1.691 -1.078,1.691L-0.272,1.691C0.105,1.691 0.263,1.656 0.525,-1.202L2.47,-0.105C2.079,3.118 1.588,3.807 -0.038,3.807" style="fill:rgb(58,53,140);fill-rule:nonzero;"/> </g>       </g>       <g transform="matrix(4.166667,0,0,4.166667,0,0)"> <g transform="matrix(1,0,0,1,657.4875,181.7811)">     <path d="M0,-2.189C-0.282,-2.156 -0.549,-2.117 -0.811,-2.117C-0.811,-1.976 -0.777,-1.625 -0.777,-1.486L0.157,-1.486C0.105,-1.766 0,-2.189 0,-2.189M-1.145,-6.07C-1.13,-5.276 -1.078,-4.445 -1.006,-3.74L-0.634,-3.74C-0.429,-3.988 -0.215,-4.269 -0.019,-4.552C-0.334,-5.044 -0.744,-5.594 -1.145,-6.07M-3.071,-6.155C-3.529,-5.276 -4.125,-4.305 -4.568,-3.703C-4.354,-3.703 -3.72,-3.793 -3.543,-3.827C-3.543,-4.058 -3.581,-4.184 -3.601,-4.34L-3.052,-4.552C-3.052,-5.013 -3.071,-5.557 -3.071,-6.155M-0.849,4.916C-1.855,5.657 -2.842,6.172 -3.634,6.507L-4.922,4.793C-3.796,4.442 -2.432,3.787 -1.66,3.17C-1.993,2.341 -2.313,1.337 -2.489,0.334L-4.106,0.334C-4.106,0.474 -4.125,0.633 -4.125,0.774C-3.281,1.39 -2.609,1.92 -2.313,2.199L-3.458,3.861C-3.777,3.417 -4.178,3.014 -4.459,2.767C-4.888,4.265 -5.522,5.359 -6.295,6.152L-7.692,4.282C-6.829,3.473 -6.028,2.01 -5.999,0.334L-6.829,0.334L-6.829,-1.486L-2.718,-1.486C-2.733,-1.625 -2.771,-1.819 -2.785,-1.993L-3.405,-1.747C-3.405,-1.96 -3.405,-2.208 -3.419,-2.366C-4.216,-2.189 -5.608,-1.993 -6.672,-1.923L-7.458,0.104C-7.83,-0.742 -8.097,-1.518 -8.307,-2.665L-8.307,6.507L-10.334,6.507L-10.334,-1.486C-10.563,0.051 -10.935,1.372 -11.502,2.554L-12.432,-0.479C-11.674,-1.661 -10.983,-3.143 -10.563,-4.552L-12.008,-4.552L-12.008,-6.579L-10.334,-6.579L-10.334,-9.366L-8.307,-9.366L-8.307,-6.579L-7.177,-6.579L-7.177,-4.552L-8.188,-4.552C-7.802,-3.74 -7.354,-3.034 -6.772,-2.435L-7.02,-3.583C-7.02,-3.583 -6.791,-3.565 -6.405,-3.617C-6.209,-3.793 -5.875,-4.216 -5.685,-4.502C-6.009,-5.062 -6.562,-5.858 -7.077,-6.494L-6.209,-8.027C-6.123,-7.922 -6.028,-7.797 -5.928,-7.656C-5.661,-8.13 -5.47,-8.75 -5.327,-9.28L-3.949,-8.664C-4.268,-7.797 -4.712,-6.897 -5.079,-6.316C-4.974,-6.192 -4.888,-6.052 -4.812,-5.911C-4.535,-6.316 -4.235,-6.915 -3.982,-7.478L-3.104,-6.812C-3.124,-7.496 -3.143,-8.502 -3.143,-9.366L-1.221,-9.366C-1.221,-8.664 -1.235,-7.797 -1.221,-7.056L-0.634,-8.096C-0.549,-7.99 -0.458,-7.866 -0.353,-7.728C-0.091,-8.204 0.105,-8.75 0.248,-9.28L1.659,-8.714C1.302,-7.797 0.92,-6.987 0.529,-6.403C0.615,-6.278 0.777,-6.07 0.868,-5.962C1.078,-6.298 1.411,-6.934 1.659,-7.478L2.804,-6.65C2.365,-5.768 1.516,-4.445 1.078,-3.793C1.268,-3.793 1.659,-3.81 1.903,-3.846C1.888,-4.076 1.845,-4.358 1.817,-4.586L2.928,-4.905C3.085,-4.039 3.228,-2.982 3.295,-2.156L2.026,-1.837C2.026,-1.837 2.026,-2.241 2.012,-2.418C1.798,-2.366 1.536,-2.331 1.302,-2.331C1.302,-2.331 1.445,-1.747 1.497,-1.486L3.014,-1.486L3.014,0.334L-0.51,0.334C-0.482,0.686 -0.315,1.267 -0.124,1.779C0.262,1.39 0.648,0.917 0.92,0.44L2.465,1.267C1.974,2.112 1.268,2.855 0.648,3.489C1.125,4.461 1.483,4.742 2.079,2.45L3.433,3.967C2.217,7.158 0.601,7.177 -0.849,4.916" style="fill:rgb(58,53,140);fill-rule:nonzero;"/> </g>       </g>       <g transform="matrix(4.166667,0,0,4.166667,0,0)"> <g transform="matrix(1,0,0,1,0,-234.577)">     <path d="M675.985,417.942L674.335,417.942L674.335,418.859L675.985,418.859L675.985,417.942ZM675.985,415.879L674.335,415.879L674.335,416.709L675.985,416.709L675.985,415.879ZM674.474,411.332L672.309,411.332L672.309,412.038L674.474,412.038L674.474,411.332ZM674.474,409.18L672.309,409.18L672.309,409.883L674.474,409.883L674.474,409.18ZM672.499,417.942L670.806,417.942L670.806,418.859L672.499,418.859L672.499,417.942ZM672.499,415.879L670.806,415.879L670.806,416.709L672.499,416.709L672.499,415.879ZM678.036,420.41C678.036,422.598 677.826,422.737 674.989,422.865L674.173,421.066C675.8,421.066 675.957,421.047 675.957,420.41L670.806,420.41L670.806,422.865L668.756,422.865L668.756,420.41L668.074,420.41L668.074,418.859L668.756,418.859L668.756,414.469L672.394,414.469L672.394,413.728L668.394,413.728L668.394,412.037L670.225,412.037L670.225,411.332L668.866,411.332L668.866,409.883L670.225,409.883L670.225,409.18L668.584,409.18L668.584,407.66L670.225,407.66L670.225,406.992L672.309,406.992L672.309,407.66L674.474,407.66L674.474,406.992L676.577,406.992L676.577,407.66L678.265,407.66L678.265,409.18L676.577,409.18L676.577,409.883L677.965,409.883L677.965,411.332L676.577,411.332L676.577,412.037L678.546,412.037L678.546,413.728L674.431,413.728L674.431,414.469L678.036,414.469L678.036,418.859L678.546,418.859L678.546,420.41L678.036,420.41ZM667.702,416.514C667.297,415.687 667.034,414.84 666.825,413.693L666.825,422.865L664.793,422.865L664.793,414.873C664.564,416.409 664.192,417.73 663.63,418.912L662.695,415.879C663.453,414.697 664.14,413.215 664.564,411.806L663.119,411.806L663.119,409.779L664.793,409.779L664.793,406.992L666.825,406.992L666.825,409.779L668.289,409.779L668.289,411.806L666.944,411.806C667.368,412.706 667.921,413.516 668.565,414.169L667.702,416.514Z" style="fill:rgb(58,53,140);fill-rule:nonzero;"/> </g>       </g>       <g transform="matrix(4.166667,0,0,4.166667,0,0)"> <g transform="matrix(1,0,0,1,146.3977,172.2958)">     <path d="M0,98.923L0,12.718C0,4.383 5.513,-1.695 14.416,-1.695C24.447,-1.695 29.113,5.936 32.363,12.718L56.669,63.453L57.094,63.453L57.094,-0.001L78.01,-0.001L78.01,86.346C78.01,93.976 75.182,100.618 66.278,100.618C57.518,100.618 53.841,95.249 49.178,85.78L21.197,27.982L20.918,28.265L20.918,98.923L0,98.923Z" style="fill:rgb(58,53,140);fill-rule:nonzero;"/> </g>       </g>       <g transform="matrix(4.166667,0,0,4.166667,0,0)"> <g transform="matrix(1,0,0,1,0,-151.766)">     <rect x="241.787" y="324.061" width="20.914" height="98.924" style="fill:rgb(58,53,140);"/> </g>       </g>       <g transform="matrix(4.166667,0,0,4.166667,0,0)"> <g transform="matrix(1,0,0,1,0,-151.766)">     <rect x="281.074" y="324.061" width="20.916" height="98.924" style="fill:rgb(58,53,140);"/> </g>       </g>   </g></svg>